<svg xmlns="http://www.w3.org/2000/svg" xml:space="preserve" width="192" height="192" data-version="2">
    <path fill="#fff" d="M65.55 124.57q-9.23 0-17.36-3.67-8.12-3.67-14.26-10.14-6.15-6.47-9.62-15.05-3.48-8.58-3.48-18.33 0-9.75 3.48-18.33 3.47-8.58 9.62-15.05 6.14-6.46 14.26-10.14 8.13-3.67 17.36-3.67 11.05 0 20.34 5.14 9.3 5.13 15.41 13.65l-8.06 4.35q-4.81-6.43-12.19-10.24-7.38-3.8-15.5-3.8-7.48 0-13.94 3.02-6.47 3.03-11.35 8.29-4.87 5.27-7.6 12.16-2.73 6.89-2.73 14.62 0 7.87 2.76 14.76t7.67 12.15q4.91 5.27 11.38 8.22 6.46 2.96 13.81 2.96 8.45 0 15.7-3.87 7.24-3.86 11.99-10.1l8.06 4.35q-6.11 8.52-15.41 13.62-9.29 5.1-20.34 5.1" paint-order="stroke"/>
    <rect width="80.47" height="94.38" x="-40.235" y="-47.19" fill="none" rx="0" ry="0" transform="translate(61.565 77.88)"/>
    <path fill="#fff" d="M114.75 122.88v-91h9.88l48.04 74.56V31.88h9.1v91h-9.82l-48.1-74.55v74.55Z" paint-order="stroke"/>
    <rect width="67.02" height="91" x="-33.51" y="-45.5" fill="none" rx="0" ry="0" transform="translate(148.76 77.88)"/>
</svg>
