<svg xmlns="http://www.w3.org/2000/svg" version="1.1" xmlns:xlink="http://www.w3.org/1999/xlink" width="1500" height="202" viewBox="0 0 1500 202"><svg xml:space="preserve" width="1500" height="202" data-version="2" data-id="lg_FlbUD99tU6TI6lGYmf" viewBox="0 0 567 202" x="0" y="0"><rect width="100%" height="100%" fill="transparent"></rect><path fill="#fff" d="M260.17 100.512q-6.96 0-13.09-2.77-6.12-2.77-10.75-7.64-4.63-4.88-7.25-11.34-2.63-6.47-2.63-13.82 0-7.35 2.63-13.82 2.62-6.47 7.25-11.34 4.63-4.88 10.75-7.65 6.13-2.77 13.09-2.77 8.33 0 15.33 3.87 7.01 3.88 11.62 10.29l-6.08 3.29q-3.63-4.85-9.19-7.72t-11.68-2.87q-5.64 0-10.51 2.28-4.88 2.28-8.56 6.25-3.67 3.97-5.73 9.16-2.06 5.2-2.06 11.03 0 5.93 2.09 11.12 2.08 5.19 5.78 9.16 3.7 3.97 8.57 6.2 4.88 2.23 10.42 2.23 6.37 0 11.83-2.91 5.46-2.92 9.04-7.62l6.08 3.28q-4.61 6.42-11.62 10.26-7 3.85-15.33 3.85"></path><rect width="60.67" height="71.15" x="-30.34" y="-35.58" fill="none" rx="0" ry="0" transform="translate(257.28 65.44)"></rect><path fill="#fff" d="M339.99 68.912v30.33h-6.86v-28.96q0-4.02-1.96-7.3-1.96-3.29-5.25-5.25-3.28-1.96-7.3-1.96-3.97 0-7.27 1.96-3.31 1.96-5.27 5.25-1.96 3.28-1.96 7.3v28.96h-6.86v-73.5h6.86v31.26q2.6-3.72 6.76-5.93 4.17-2.2 9.07-2.2 5.53 0 10.09 2.69 4.56 2.7 7.25 7.25 2.7 4.56 2.7 10.1"></path><rect width="42.73" height="73.5" x="-21.36" y="-36.75" fill="none" rx="0" ry="0" transform="translate(319.12 63)"></rect><path fill="#fff" d="M389.08 50.242h6.86v49h-6.86l-.24-9.12q-2.4 4.66-6.71 7.52-4.32 2.87-10.29 2.87-5.39 0-10.1-2.03-4.7-2.04-8.28-5.61-3.58-3.58-5.58-8.28-2.01-4.71-2.01-10.1 0-5.29 1.98-9.94 1.99-4.66 5.49-8.19 3.5-3.53 8.13-5.51 4.63-1.98 9.93-1.98 6.12 0 10.68 2.91 4.55 2.92 7.25 7.62Zm-17.39 43.61q5.24 0 9.02-2.58 3.77-2.57 5.8-6.93 2.04-4.36 2.04-9.6 0-5.39-2.06-9.73-2.06-4.34-5.83-6.88-3.78-2.55-8.97-2.55-5.19 0-9.48 2.57t-6.81 6.93q-2.53 4.37-2.53 9.66 0 5.34 2.6 9.67 2.6 4.34 6.89 6.89 4.28 2.55 9.33 2.55"></path><rect width="50.07" height="51.64" x="-25.04" y="-25.82" fill="none" rx="0" ry="0" transform="translate(371.4 75.2)"></rect><path fill="#fff" d="M448.47 68.912v30.33h-6.86v-28.96q0-4.02-1.96-7.3-1.96-3.29-5.24-5.25-3.28-1.96-7.3-1.96-3.97 0-7.28 1.96t-5.27 5.25q-1.96 3.28-1.96 7.3v28.96h-6.86v-49h6.86v6.76q2.6-3.72 6.77-5.93 4.16-2.2 9.06-2.2 5.54 0 10.1 2.69 4.55 2.7 7.25 7.25 2.69 4.56 2.69 10.1"></path><rect width="42.73" height="50.37" x="-21.36" y="-25.18" fill="none" rx="0" ry="0" transform="translate(427.6 74.56)"></rect><path fill="#fff" d="M496.25 50.242h6.86v50.81q0 4.7-2.04 8.82-2.03 4.12-5.48 7.23-3.46 3.11-7.87 4.87-4.41 1.77-9.16 1.77-5.1 0-9.85-2.33t-8.26-6.2q-3.5-3.87-4.97-8.57l6.32-2.89q.93 3.67 3.5 6.63 2.58 2.97 6.08 4.71 3.5 1.74 7.18 1.74 3.38 0 6.54-1.25t5.68-3.41q2.53-2.15 4-5.02 1.47-2.87 1.47-6.1v-10.83q-2.55 4.61-6.89 7.45-4.33 2.84-10.07 2.84-5.14 0-9.67-2.01-4.54-2.01-7.97-5.56-3.43-3.55-5.36-8.21-1.94-4.65-1.94-9.99t1.94-10.02q1.93-4.68 5.36-8.24 3.43-3.55 7.97-5.56 4.53-2.01 9.67-2.01 5.74 0 10.07 2.82 4.34 2.82 6.89 7.47Zm-16.91 43.61q5.1 0 8.8-2.65 3.7-2.64 5.71-7.01 2.01-4.36 2.01-9.45 0-5.25-2.04-9.58-2.03-4.34-5.76-6.96-3.72-2.62-8.72-2.62t-9.09 2.57q-4.09 2.57-6.49 6.93-2.4 4.37-2.4 9.66t2.45 9.63q2.45 4.33 6.54 6.9 4.09 2.58 8.99 2.58"></path><rect width="48.76" height="74.83" x="-24.38" y="-37.41" fill="none" rx="0" ry="0" transform="translate(479.23 86.83)"></rect><path fill="#fff" d="M535.94 100.512q-6.76 0-12.33-3.48-5.56-3.48-8.86-9.33-3.31-5.86-3.31-12.96 0-5.39 1.91-10.07 1.91-4.68 5.27-8.23 3.35-3.56 7.81-5.57 4.46-2 9.51-2 5.44 0 10.02 2.15 4.58 2.16 7.89 6.03 3.3 3.87 5 9.06 1.69 5.2 1.39 11.22h-41.55q.59 4.66 2.96 8.33 2.38 3.68 6.08 5.81 3.7 2.13 8.21 2.18 4.9 0 8.84-2.55 3.95-2.54 6.35-7l6.96 1.61q-2.94 6.52-8.87 10.66-5.93 4.14-13.28 4.14m-17.45-28.71h34.84q-.34-4.56-2.77-8.36-2.42-3.79-6.24-6.07-3.83-2.28-8.38-2.28-4.56 0-8.33 2.23-3.78 2.23-6.18 6.02-2.4 3.8-2.94 8.46"></path><rect width="48.95" height="51.64" x="-24.48" y="-25.82" fill="none" rx="0" ry="0" transform="translate(536.41 75.2)"></rect><path fill="#fff" d="M228.41 186.722v-68.6h7.45l36.21 56.2v-56.2h6.86v68.6h-7.4l-36.26-56.2v56.2Z"></path><rect width="50.52" height="68.6" x="-25.26" y="-34.3" fill="none" rx="0" ry="0" transform="translate(254.17 152.92)"></rect><path fill="#fff" d="M311.91 188.002q-6.76 0-12.32-3.48-5.57-3.48-8.87-9.34-3.31-5.85-3.31-12.96 0-5.39 1.91-10.07 1.91-4.68 5.27-8.23 3.35-3.55 7.81-5.56 4.46-2.01 9.51-2.01 5.44 0 10.02 2.16 4.58 2.15 7.89 6.02 3.31 3.87 5 9.07 1.69 5.19 1.39 11.22h-41.55q.59 4.65 2.97 8.33 2.37 3.67 6.07 5.81 3.7 2.13 8.21 2.18 4.9 0 8.84-2.55 3.95-2.55 6.35-7.01l6.96 1.62q-2.94 6.51-8.87 10.66-5.93 4.14-13.28 4.14m-17.44-28.72h34.83q-.34-4.56-2.76-8.35-2.43-3.8-6.25-6.08-3.82-2.28-8.38-2.28-4.56 0-8.33 2.23-3.77 2.23-6.17 6.03-2.41 3.8-2.94 8.45"></path><rect width="48.95" height="51.65" x="-24.48" y="-25.82" fill="none" rx="0" ry="0" transform="translate(312.38 162.68)"></rect><path fill="#fff" d="M359.88 187.652q-4.02-.1-7.84-1.47-3.82-1.37-6.66-3.72-2.85-2.35-4.07-5.34l5.93-2.55q.78 1.91 2.91 3.5 2.14 1.6 4.88 2.55 2.74.96 5.44.96 2.99 0 5.58-.98 2.6-.98 4.24-2.82 1.64-1.84 1.64-4.34 0-2.69-1.76-4.24-1.76-1.54-4.46-2.45-2.69-.9-5.54-1.74-5.19-1.42-9.16-3.13-3.97-1.72-6.2-4.39t-2.23-6.88q0-4.46 2.53-7.72 2.52-3.26 6.61-5.05 4.09-1.78 8.75-1.78 5.98 0 10.9 2.59 4.93 2.6 7.13 6.91l-5.54 3.28q-.88-2-2.79-3.47-1.91-1.47-4.34-2.31-2.42-.83-4.92-.88-3.14-.05-5.83.91-2.7.95-4.34 2.81-1.64 1.87-1.64 4.56 0 2.7 1.62 4.09 1.61 1.4 4.38 2.26 2.77.85 6.25 1.98 4.46 1.42 8.38 3.24 3.92 1.81 6.32 4.5 2.4 2.7 2.35 6.81 0 4.41-2.64 7.7-2.65 3.28-6.86 5.02-4.22 1.74-9.02 1.59"></path><rect width="37.19" height="51.65" x="-18.59" y="-25.82" fill="none" rx="0" ry="0" transform="translate(360.4 162.39)"></rect><path fill="#fff" d="M411.87 144.582h-11.71l-.05 42.14h-6.86l.05-42.14h-8.87v-6.86h8.87l-.05-15.38h6.86l.05 15.38h11.71Z"></path><rect width="27.44" height="64.38" x="-13.72" y="-32.19" fill="none" rx="0" ry="0" transform="translate(398.65 155.03)"></rect><g transform="translate(127.1 90.7)scale(2.5971)"><linearGradient id="a" x1="0" x2="1" y1="0" y2="0" gradientUnits="objectBoundingBox"><stop offset="0%" stop-color="#6ee2f5"></stop><stop offset="100%" stop-color="#6454f0"></stop></linearGradient><path fill="url(#a)" fill-rule="evenodd" d="m46.55 16.92.04-.02.02-.01.03-.03.02-.02q0-.02.02-.03v-.04l.01-.01v-.03l.01-.02v-.04l.01-.02v-.06l.01-.05.04-.03-.03-.02v.05l-.57.43zm.22-.42c.39.14.51-.22.7-.45l.05-.04.05-.05zm13.4 53c9.13-10.84 14.85-23.19 16.02-37.45a29 29 0 0 0-1.46-12.45c-.48-1.32-.88-2.73-2.06-3.66q-1.98-1.6-4.27-2.76a18 18 0 0 0-10.44-1.89c-3.56.44-6.65 1.94-9.5 4.03l-.04.03c-.1.07-.18.14-.1.29.15.1.25 0 .37-.07 2.12-1 4.3-1.85 6.63-2.17 4.84-.67 8.95.62 12.03 4.55 2.58 3.28 3.55 7.15 3.9 11.2.37 4.2.02 8.37-.96 12.46-3.65 15.2-11.2 27.77-24.58 36.5q-.02-.03 0 .01c.76.29 1.53.55 2.27.86.45.19.8.14 1.23-.1a43 43 0 0 0 10.95-9.37" transform="translate(-61.02 -45.13)" vector-effect="non-scaling-stroke"></path></g><g transform="translate(108.23 100.13)scale(2.5971)"><linearGradient id="b" x1="0" x2="1" y1="0" y2="0" gradientUnits="objectBoundingBox"><stop offset="0%" stop-color="#6ee2f5"></stop><stop offset="100%" stop-color="#6454f0"></stop></linearGradient><path fill="url(#b)" fill-rule="evenodd" d="M54.02 67.5c7.52-9.15 12.17-19.5 12.9-31.43.3-4.77-.28-9.43-2.73-13.66-2.3-3.96-5.72-6.21-10.4-6.38-2.82-.1-5.44.65-8 1.73-.02-.72-.35-.34-.6-.16a47 47 0 0 0-10.08 9.63A63 63 0 0 0 24.36 47.9c-.82 2.7-1.4 5.44-1.83 8.22-.07.48.04.62.54.63 1.98.03 1.98.05 2.26-1.9l.07-.58a68 68 0 0 1 10.44-25.24 55 55 0 0 1 8.56-10.17c.32.24-.22.41-.1.63q0 .02.03.05h.18l.4-.12c2.49-.69 5-.9 7.52-.25 4.4 1.13 7.05 4.15 8.63 8.24 1.87 4.83 1.86 9.82 1.08 14.84a50 50 0 0 1-7.65 19.6c-3.72 5.7-8.24 10.6-14.32 13.88-.08.05-.2.1-.14.24l.14.08c.55.2 1.12.37 1.64.63.64.31 1.14.2 1.76-.15a39 39 0 0 0 10.45-9.03m13.68 3.17A84 84 0 0 0 84.74 38.1a5.6 5.6 0 0 0-.08-3.64 49 49 0 0 0-3.32-7.48 67 67 0 0 1-.73 7.4 73 73 0 0 1-9.12 24.77c-3.83 6.58-8.46 12.51-14.36 17.4a43 43 0 0 1-5.45 3.78c.98.37 1.84.67 2.68 1.03.51.23.91.15 1.38-.14A51 51 0 0 0 67.7 70.67" transform="translate(-53.76 -48.76)" vector-effect="non-scaling-stroke"></path></g><g transform="translate(98.66 88.64)scale(2.5971)"><linearGradient id="c" x1="0" x2="1" y1="0" y2="0" gradientUnits="objectBoundingBox"><stop offset="0%" stop-color="#6ee2f5"></stop><stop offset="100%" stop-color="#6454f0"></stop></linearGradient><path fill="url(#c)" fill-rule="evenodd" d="M49.27 59.28c-.11.2-.24.39-.28.6a26 26 0 0 1-2.48 7.61c.17-.03.28-.02.33-.06q.7-.77 1.37-1.58a47 47 0 0 0 10.07-22.34c.7-4.37.64-8.73-.77-12.98-1.93-5.86-6.45-9.85-13.17-9.3-1.68.14-2.28.56-2.91 2.3l.06.03.42.03c5.32.05 8.94 2.68 11.09 7.43 1.88 4.17 2.02 8.59 1.47 13.04a41 41 0 0 1-5.2 15.22" transform="translate(-50.07 -44.34)" vector-effect="non-scaling-stroke"></path></g><g transform="translate(106.11 115.22)scale(2.5971)"><linearGradient id="d" x1="0" x2="1" y1="0" y2="0" gradientUnits="objectBoundingBox"><stop offset="0%" stop-color="#6ee2f5"></stop><stop offset="100%" stop-color="#6454f0"></stop></linearGradient><path fill="url(#d)" fill-rule="evenodd" d="M43.06 37.44q.06-.14.07-.24a1 1 0 0 0-.09-.4 13 13 0 0 0-3.54-4.9c-.52-.42-1.47-.57-1.51-1.25-.04-.62.5-1.27.73-1.92.14-.41.3-.47.71-.32q3.42 1.23 5.42 4.26c2.32 3.5 2.88 7.42 2.69 11.51-.02.46 0 .88.16 1.3a28 28 0 0 1 1.5 6.56c.35-.2.34-.52.42-.77a34 34 0 0 0 1.28-5.7c.53-4.08.45-8.13-1.11-12.02-1.52-3.77-4.05-6.5-8.11-7.53-1.45-.37-1.44-.36-2.27.87a75 75 0 0 0-6.62 12.05 69 69 0 0 0-5.13 17.22c-.07.47 0 .6.46.57a13 13 0 0 1 1.76 0c.59.05.75-.22.83-.75.56-3.44 1.45-6.8 2.47-10.12.84-2.74 2.16-5.31 2.68-8.16.25-1.4.71-2.74 1.04-4.12.15-.61.34-.74.94-.4a20 20 0 0 1 5.22 4.26m44.07 7.8C80.72 60.27 72.35 73.6 58.58 82.88c1.06.4 2.08.76 3.08 1.17.4.17.7.1 1.06-.14a54 54 0 0 0 7.7-6.15c7-6.7 12.48-14.51 17.09-22.98q.25-.44.24-.95a61 61 0 0 0-.62-8.59M65.96 85.62c1.23.46 2.33.83 3.4 1.29.54.23.92.11 1.37-.2 5.05-3.53 9.37-7.83 13.39-12.45.27-.31.4-.67.52-1.04A58 58 0 0 0 86.8 65c.06-.32.17-.67-.04-1.08-5.78 8.35-12.21 15.96-20.8 21.7M38.84 22.11a39 39 0 0 0-5.81 4.48 51 51 0 0 0-11.54 17.24q-2.45 5.9-3.3 12.22c-.02.23-.17.63.1.67q.92.15 1.82 0c.42-.08.3-.6.34-.93.31-2.44.85-4.83 1.54-7.18q3.29-11.1 10.61-20.09 2.86-3.45 6.24-6.4" transform="translate(-52.94 -54.57)" vector-effect="non-scaling-stroke"></path></g><g transform="translate(27.48 83.28)scale(2.5971)"><linearGradient id="e" x1="0" x2="1" y1="0" y2="0" gradientUnits="objectBoundingBox"><stop offset="0%" stop-color="#6ee2f5"></stop><stop offset="100%" stop-color="#6454f0"></stop></linearGradient><path fill="url(#e)" fill-rule="evenodd" d="m30.92 27.9-.16-.18a10 10 0 0 0-2.57 1.85 43.5 43.5 0 0 0-13.66 25.65c-.24 1.64-.25 1.62 1.2 1.6.42-.02.6-.13.6-.56q.04-.72.18-1.41a47 47 0 0 1 12.06-24.6q1.15-1.2 2.35-2.36" transform="translate(-22.66 -42.27)" vector-effect="non-scaling-stroke"></path></g></svg></svg>