<?xml version="1.0" encoding="UTF-8"?>
<svg version="1.1" xmlns="http://www.w3.org/2000/svg" width="586" height="280">
<path d="M0 0 C193.38 0 386.76 0 586 0 C586 92.4 586 184.8 586 280 C392.62 280 199.24 280 0 280 C0 187.6 0 95.2 0 0 Z " fill="#FEFEFE" transform="translate(0,0)"/>
<path d="M0 0 C5.22851978 1.419996 10.23279227 3.02118482 15.171875 5.26171875 C36.89582516 14.92136938 57.5185939 15.29442163 79.53662109 6.85189819 C84.13292301 5.03144178 88.67870944 3.10514054 93.19799805 1.1015625 C96 0 96 0 99 0 C99.67848208 2.18386418 100.3422551 4.37230084 101 6.5625 C101.37125 7.78066406 101.7425 8.99882813 102.125 10.25390625 C103.59406315 16.54333284 103.03882401 21.71808629 101.5 27.9375 C101.2215625 29.08089844 100.943125 30.22429687 100.65625 31.40234375 C100.4396875 32.25957031 100.223125 33.11679688 100 34 C100.66 34 101.32 34 102 34 C102 34.66 102 35.32 102 36 C101.01 36.99 101.01 36.99 100 38 C100 38.99 100 39.98 100 41 C100 44 100 44 98.5 45.8125 C96.46741127 48.77669189 96.73162962 50.42731929 97 54 C97.96014104 57.17875267 99.04806991 60.24416028 100.22265625 63.34570312 C103.27516929 71.83168937 101.6424712 78.17085024 99 86.4375 C98.71382813 87.35982422 98.42765625 88.28214844 98.1328125 89.23242188 C97.43060845 91.49117822 96.71952111 93.74671247 96 96 C90.99620602 95.58574255 86.60578323 95.13127231 82 93 C78.24504388 91.55852395 75.04323894 90.69952462 71 91 C68.18238636 92.86638425 68.18238636 92.86638425 65.5 95.375 C58.89052073 100.93316705 52.98881187 101.44413169 44.50390625 100.84765625 C38.95829276 100.08405464 35.50012167 97.40362729 31.32421875 93.796875 C28.25681268 91.42543501 26.32627454 91.09859148 22.53125 91.44921875 C17.98559413 92.4383198 13.55663784 93.77852427 9.13671875 95.22265625 C6.0182678 95.99547286 4.8817034 96.22455842 2 95 C0.97924805 93.16162109 0.97924805 93.16162109 0.26171875 90.7734375 C-0.00060547 89.90589844 -0.26292969 89.03835937 -0.53320312 88.14453125 C-0.79037109 87.23058594 -1.04753906 86.31664062 -1.3125 85.375 C-1.58900391 84.48425781 -1.86550781 83.59351563 -2.15039062 82.67578125 C-4.7959014 73.62640182 -2.89491342 67.05008981 0.359375 58.4296875 C2.13127161 53.46023033 2.05815305 50.53956731 0.0625 45.75 C-2.55685928 38.97048186 -3.29889252 32.04667538 -3.76171875 24.83203125 C-3.95117943 21.80227752 -3.95117943 21.80227752 -4.875 18.125 C-5.76946391 12.03227482 -2.24044226 5.51970549 0 0 Z " fill="#F48420" transform="translate(24,80)"/>
<path d="M0 0 C4.72683083 4.07805013 5.69799048 10.33224927 6.375 16.3125 C5.79708588 21.99532215 4.39730845 27.4689874 3 33 C3.66 33 4.32 33 5 33 C5 33.66 5 34.32 5 35 C4.34 35.66 3.68 36.32 3 37 C3 37.99 3 38.98 3 40 C3 43 3 43 1.5 44.8125 C-0.56221073 47.81989065 -0.4096221 49.38167142 0 53 C0.45152301 54.4257181 0.93340511 55.84201084 1.4375 57.25 C3 62 3 62 4 72 C-7.22 72.33 -18.44 72.66 -30 73 C-30 73.66 -30 74.32 -30 75 C-32.61373889 77.53906064 -34.12889581 78.92256852 -37.8125 79.25 C-38.534375 79.1675 -39.25625 79.085 -40 79 C-43.20594156 73.77126199 -42.25380451 67.82235698 -42.05664062 61.92578125 C-42.01450204 59.74910537 -42.02089528 57.57138214 -42.05273438 55.39453125 C-42.3904056 31.80412082 -42.3904056 31.80412082 -38.54443359 25.68359375 C-34.95860076 22.10856458 -30.70999914 20.05213074 -26.11865234 18.02734375 C-22.71503874 16.37691669 -19.91761187 14.06833408 -17 11.6875 C-15.96101563 10.87796875 -14.92203125 10.0684375 -13.8515625 9.234375 C-12.91054687 8.49703125 -11.96953125 7.7596875 -11 7 C-9.46262059 5.80695478 -7.92161334 4.61855019 -6.375 3.4375 C-5.78460938 2.98246094 -5.19421875 2.52742188 -4.5859375 2.05859375 C-3 1 -3 1 0 0 Z " fill="#F38420" transform="translate(121,81)"/>
<path d="M0 0 C-1.39987116 2.79974232 -3.13006614 2.87703893 -6 4 C-7.40600473 4.9069343 -8.77894854 5.86685493 -10.1171875 6.87109375 C-11.26489624 7.72550049 -11.26489624 7.72550049 -12.43579102 8.59716797 C-13.24072998 9.20447754 -14.04566895 9.81178711 -14.875 10.4375 C-16.56898127 11.69925789 -18.26299209 12.9609761 -19.95703125 14.22265625 C-21.63827948 15.48142545 -23.31927647 16.7405303 -25 18 C-27.84940127 20.13149861 -30.70399195 22.25573684 -33.5625 24.375 C-34.18688965 24.84478271 -34.8112793 25.31456543 -35.45458984 25.79858398 C-39.77373901 29 -39.77373901 29 -42 29 C-41.98839844 30.23234375 -41.97679687 31.4646875 -41.96484375 32.734375 C-41.9121822 40.85988774 -41.97101296 48.85228782 -42.7734375 56.9453125 C-43.06092073 60.8213795 -43.11457721 64.676971 -43.125 68.5625 C-43.12951172 69.25432373 -43.13402344 69.94614746 -43.13867188 70.65893555 C-43.12957631 73.71694087 -42.97477179 76.07568462 -42 79 C-41.01 79.66 -40.02 80.32 -39 81 C-42.43742918 81.05802698 -45.87473253 81.09360486 -49.3125 81.125 C-50.28896484 81.14175781 -51.26542969 81.15851563 -52.27148438 81.17578125 C-53.20927734 81.18222656 -54.14707031 81.18867188 -55.11328125 81.1953125 C-55.97735596 81.20578613 -56.84143066 81.21625977 -57.73168945 81.22705078 C-60 81 -60 81 -63 79 C-63 78.34 -63 77.68 -63 77 C-63.78375 76.690625 -64.5675 76.38125 -65.375 76.0625 C-68 75 -68 75 -70 74 C-70.04241723 71.66705225 -70.04092937 69.33297433 -70 67 C-69.67 66.67 -69.34 66.34 -69 66 C-67.14227838 66.08984301 -65.28752015 66.24611861 -63.4375 66.4375 C-62.42558594 66.53933594 -61.41367187 66.64117187 -60.37109375 66.74609375 C-59.58863281 66.82988281 -58.80617187 66.91367188 -58 67 C-57.67 68.65 -57.34 70.3 -57 72 C-56.83497515 57.64283833 -57.34479743 43.34126909 -58 29 C-58.76481689 28.71423096 -59.52963379 28.42846191 -60.31762695 28.1340332 C-63.73701361 26.68841101 -66.34839273 24.52396457 -69.1875 22.1875 C-75.68551451 16.94378439 -82.39533929 12.04835941 -89.22143555 7.2409668 C-89.95918213 6.71672119 -90.69692871 6.19247559 -91.45703125 5.65234375 C-92.11678955 5.18820068 -92.77654785 4.72405762 -93.45629883 4.24584961 C-95 3 -95 3 -96 1 C-91.00008271 2.3666528 -86.17595601 3.81872718 -81.484375 6.04296875 C-62.85061116 14.69880559 -43.12874133 15.3518221 -23.84266663 8.50616455 C-17.74094178 6.24856563 -11.74878758 3.738006 -5.80200195 1.1015625 C-3 0 -3 0 0 0 Z " fill="#F3831F" transform="translate(123,80)"/>
<path d="M0 0 C2.90170295 1.36346053 5.41163602 2.92639619 7.984375 4.8359375 C8.74758057 5.40030518 9.51078613 5.96467285 10.29711914 6.54614258 C11.10656982 7.14966553 11.91602051 7.75318848 12.75 8.375 C13.5845874 8.99334717 14.4191748 9.61169434 15.27905273 10.2487793 C21.57534574 14.91983757 27.84953304 19.62095021 34.09863281 24.35498047 C37.41032314 26.8942174 37.41032314 26.8942174 41 29 C38.39719912 35.50700219 31.50987863 40.12403039 25.5078125 43.33203125 C23.03170294 44.35088945 20.55348889 45.19461179 18 46 C16.329375 46.58974609 16.329375 46.58974609 14.625 47.19140625 C5.66516994 50.22134878 5.66516994 50.22134878 2.6875 49.23046875 C-1.58975664 46.11163578 -2.16435134 38.95420279 -3 34 C-3.32156572 30.94512565 -3.56506911 27.89745211 -3.76171875 24.83203125 C-3.95117943 21.80227752 -3.95117943 21.80227752 -4.875 18.125 C-5.76946391 12.03227482 -2.24044226 5.51970549 0 0 Z " fill="#773F1A" transform="translate(24,80)"/>
<path d="M0 0 C4.72683083 4.07805013 5.69799048 10.33224927 6.375 16.3125 C5.79708588 21.99532215 4.39730845 27.4689874 3 33 C3.66 33 4.32 33 5 33 C5 33.66 5 34.32 5 35 C4.34 35.66 3.68 36.32 3 37 C3 37.99 3 38.98 3 40 C3 44.38968456 0.87194899 45.76905739 -2 49 C-5.02529632 48.26730751 -8.04413713 47.51070752 -11.0625 46.75 C-11.91005859 46.54503906 -12.75761719 46.34007812 -13.63085938 46.12890625 C-21.91571507 44.0177075 -27.70543353 40.59737101 -33.9375 34.75 C-34.89527344 33.85796875 -35.85304688 32.9659375 -36.83984375 32.046875 C-37.55269531 31.37140625 -38.26554687 30.6959375 -39 30 C-37.48278875 25.69466678 -34.2483562 23.76157565 -30.625 21.3125 C-29.35329658 20.4296374 -28.08247867 19.54549807 -26.8125 18.66015625 C-26.173125 18.21687988 -25.53375 17.77360352 -24.875 17.31689453 C-22.07896424 15.35311629 -19.35348165 13.30680186 -16.625 11.25 C-15.17673828 10.15945312 -15.17673828 10.15945312 -13.69921875 9.046875 C-11.98934389 7.75024052 -10.2831359 6.44874425 -8.58203125 5.140625 C-7.87433594 4.59921875 -7.16664062 4.0578125 -6.4375 3.5 C-5.83808594 3.0359375 -5.23867187 2.571875 -4.62109375 2.09375 C-3 1 -3 1 0 0 Z " fill="#773F1A" transform="translate(121,81)"/>
<path d="M0 0 C3.63 0 7.26 0 11 0 C11.34933594 1.07121094 11.69867188 2.14242187 12.05859375 3.24609375 C12.51807145 4.64328104 12.97771546 6.04041365 13.4375 7.4375 C13.66759766 8.14455078 13.89769531 8.85160156 14.13476562 9.58007812 C15.07421147 13.06306795 15.07421147 13.06306795 17 16 C18.65 10.72 20.3 5.44 22 0 C25.96 0 29.92 0 34 0 C34 16.17 34 32.34 34 49 C31.36 49 28.72 49 26 49 C25.67 38.44 25.34 27.88 25 17 C23.35 21.95 21.7 26.9 20 32 C18.02 32 16.04 32 14 32 C13.36559072 30.52484445 12.74309173 29.04456668 12.125 27.5625 C11.77695312 26.73878906 11.42890625 25.91507813 11.0703125 25.06640625 C9.70259452 21.14794416 8.90032668 17.05147004 8 13 C7.67 24.55 7.34 36.1 7 48 C4.69 48 2.38 48 0 48 C0 32.16 0 16.32 0 0 Z " fill="#202020" transform="translate(373,106)"/>
<path d="M0 0 C3.63 0 7.26 0 11 0 C11.45375 1.381875 11.9075 2.76375 12.375 4.1875 C13.23395525 6.78472014 14.12266992 9.29053402 15.1875 11.8125 C16 14 16 14 16 18 C16.66 18 17.32 18 18 18 C18.16435547 16.93072266 18.16435547 16.93072266 18.33203125 15.83984375 C19.27825187 10.12405578 20.45384524 5.20804382 23 0 C26.63 0 30.26 0 34 0 C34 16.17 34 32.34 34 49 C31.36 49 28.72 49 26 49 C25.67 38.11 25.34 27.22 25 16 C23.35 21.28 21.7 26.56 20 32 C18.02 32 16.04 32 14 32 C13.56033498 30.70906867 13.12344701 29.41719164 12.6875 28.125 C12.44386719 27.40570313 12.20023438 26.68640625 11.94921875 25.9453125 C10.56536033 21.65136498 9.29635142 17.32117141 8 13 C7.67 24.55 7.34 36.1 7 48 C4.69 48 2.38 48 0 48 C0 32.16 0 16.32 0 0 Z " fill="#1B1B1B" transform="translate(170,106)"/>
<path d="M0 0 C2.54530025 3.81795037 2.35960708 5.43748516 2 10 C1.17359907 13.53696767 0.10553552 16.97896659 -1 20.4375 C-1.28617187 21.35982422 -1.57234375 22.28214844 -1.8671875 23.23242188 C-2.56939155 25.49117822 -3.28047889 27.74671247 -4 30 C-9.00379398 29.58574255 -13.39421677 29.13127231 -18 27 C-21.75495612 25.55852395 -24.95676106 24.69952462 -29 25 C-31.81761364 26.86638425 -31.81761364 26.86638425 -34.5 29.375 C-41.10442622 34.92891775 -47.00125452 35.44746188 -55.48046875 34.84375 C-61.00750855 34.0809243 -64.7046316 31.60500632 -68.7734375 27.84765625 C-71.23673138 25.80355448 -72.85761991 25.34977022 -76 25 C-72.88375623 22.92250415 -69.77723557 21.43655823 -66.375 19.875 C-65.20710938 19.33617187 -64.03921875 18.79734375 -62.8359375 18.2421875 C-60 17 -60 17 -59 17 C-59 19.64 -59 22.28 -59 25 C-53.39 25 -47.78 25 -42 25 C-42 22.36 -42 19.72 -42 17 C-41.25234375 17.34933594 -40.5046875 17.69867188 -39.734375 18.05859375 C-38.74953125 18.51363281 -37.7646875 18.96867187 -36.75 19.4375 C-35.28820312 20.11619141 -35.28820312 20.11619141 -33.796875 20.80859375 C-31.50748305 21.78382356 -29.42621254 22.4974274 -27 23 C-26.74347656 22.28328125 -26.48695312 21.5665625 -26.22265625 20.828125 C-24.92260751 17.8209835 -23.34446652 15.40940216 -21.4375 12.75 C-20.81746094 11.87859375 -20.19742188 11.0071875 -19.55859375 10.109375 C-18 8 -18 8 -17 7 C-15.65732587 6.91368126 -14.31025678 6.89293527 -12.96484375 6.90234375 C-12.15595703 6.90556641 -11.34707031 6.90878906 -10.51367188 6.91210938 C-9.66353516 6.92048828 -8.81339844 6.92886719 -7.9375 6.9375 C-7.08349609 6.94201172 -6.22949219 6.94652344 -5.34960938 6.95117188 C-3.23304337 6.96299627 -1.11651315 6.98093231 1 7 C0.505 3.535 0.505 3.535 0 0 Z " fill="#E07627" transform="translate(124,146)"/>
<path d="M0 0 C3.3 0 6.6 0 10 0 C12.27834158 5.74853236 13.95520447 11.42508249 15.375 17.4375 C17.18062034 24.90845481 19.17887626 32.28358334 21.47607422 39.61889648 C22.49930801 42.95368219 23 45.46583072 23 49 C20.69 49 18.38 49 16 49 C15.491217 47.44033782 14.99336531 45.87710759 14.5 44.3125 C14.2215625 43.44238281 13.943125 42.57226562 13.65625 41.67578125 C13 39 13 39 13 34 C8.05 34.33 3.1 34.66 -2 35 C-2.474375 37.124375 -2.94875 39.24875 -3.4375 41.4375 C-4.875 47.875 -4.875 47.875 -6 49 C-8.33297433 49.04092937 -10.66705225 49.04241723 -13 49 C-11.70390568 42.0485612 -10.080763 35.24909114 -8.1875 28.4375 C-7.92759277 27.49310059 -7.66768555 26.54870117 -7.39990234 25.57568359 C-5.03323852 17.02083487 -2.54842839 8.5022788 0 0 Z " fill="#1E1E1E" transform="translate(439,106)"/>
<path d="M0 0 C3.3 0 6.6 0 10 0 C13.39143696 11.70232095 16.69293437 23.42637598 19.875 35.1875 C20.1851001 36.32751465 20.4952002 37.4675293 20.81469727 38.64208984 C21.10014404 39.70250488 21.38559082 40.76291992 21.6796875 41.85546875 C21.93476074 42.80059326 22.18983398 43.74571777 22.45263672 44.71948242 C23 47 23 47 23 49 C20.69 49 18.38 49 16 49 C14.38262517 44.37892907 13.14751403 39.7539867 12 35 C7.05 34.67 2.1 34.34 -3 34 C-3.12375 35.175625 -3.2475 36.35125 -3.375 37.5625 C-3.86435935 41.54120426 -4.8055205 45.17766559 -6 49 C-8.31 49 -10.62 49 -13 49 C-12.44023048 43.52399387 -11.41238865 38.50436965 -9.75 33.25 C-7.45361058 25.76243508 -5.50397139 18.22132412 -3.70019531 10.60058594 C-3.50651367 9.79782227 -3.31283203 8.99505859 -3.11328125 8.16796875 C-2.94610596 7.45922607 -2.77893066 6.7504834 -2.60668945 6.02026367 C-2 4 -2 4 0 0 Z " fill="#1E1E1E" transform="translate(331,106)"/>
<path d="M0 0 C2.31 0 4.62 0 7 0 C7.33 5.94 7.66 11.88 8 18 C9.19496094 16.700625 10.38992188 15.40125 11.62109375 14.0625 C13.225331 12.37382922 14.83086867 10.68639317 16.4375 9 C17.22060547 8.14148438 18.00371094 7.28296875 18.81054688 6.3984375 C24.71248122 0.27791299 24.71248122 0.27791299 28.60595703 -0.5625 C31.09765625 -0.5625 31.09765625 -0.5625 35 0 C28.59258011 7.55746962 22.12494035 15.10489643 15 22 C16.65978866 26.37290475 19.95850255 29.1386705 23.25 32.3125 C26.86697456 35.85359398 30.44242234 39.3575253 33.6875 43.25 C35.7042322 46.01742194 35.7042322 46.01742194 38 47 C38 47.66 38 48.32 38 49 C34.55080068 49.4996828 31.4401454 49.62594362 28 49 C25.91726509 47.43794881 24.62614324 45.73024637 23.0703125 43.64453125 C20.33214062 40.14690415 17.22488174 37.11130011 14.0625 34 C12.061875 32.02 10.06125 30.04 8 28 C7.67 34.6 7.34 41.2 7 48 C4.69 48 2.38 48 0 48 C0 32.16 0 16.32 0 0 Z " fill="#191919" transform="translate(529,106)"/>
<path d="M0 0 C9.57 0 19.14 0 29 0 C29 1.98 29 3.96 29 6 C21.74 6 14.48 6 7 6 C7 10.62 7 15.24 7 20 C13.27 20 19.54 20 26 20 C26 21.98 26 23.96 26 26 C19.73 26 13.46 26 7 26 C7 31.28 7 36.56 7 42 C14.59 42 22.18 42 30 42 C30 44.31 30 46.62 30 49 C20.1 49 10.2 49 0 49 C0 32.83 0 16.66 0 0 Z " fill="#181818" transform="translate(225,106)"/>
<path d="M0 0 C4.30580709 2.8355315 4.30580709 2.8355315 5.5625 4.6875 C6.25 8.375 6.25 8.375 6.5625 11.6875 C4.2525 11.6875 1.9425 11.6875 -0.4375 11.6875 C-0.72625 11.048125 -1.015 10.40875 -1.3125 9.75 C-2.26573451 7.53543921 -2.26573451 7.53543921 -4.4375 6.6875 C-7.9375 6.4375 -7.9375 6.4375 -11.4375 6.6875 C-13.64939267 8.56863338 -13.64939267 8.56863338 -14.1875 11.4375 C-13.77939488 14.74683386 -13.77939488 14.74683386 -11.484375 16.23828125 C-8.84112687 17.80720307 -6.1606076 19.26203258 -3.4375 20.6875 C5.81302431 25.87644185 5.81302431 25.87644185 7.5625 30.6875 C8.30138634 34.72471401 8.45688015 38.11040966 6.390625 41.75390625 C2.89233241 46.07267468 -0.11235556 48.3300186 -5.7265625 48.93359375 C-11.86000558 49.2393394 -15.55910083 48.47074833 -20.4375 44.6875 C-22.85555004 40.94342252 -23.4375 39.18262007 -23.4375 34.6875 C-20.7975 34.6875 -18.1575 34.6875 -15.4375 34.6875 C-15.128125 35.491875 -14.81875 36.29625 -14.5 37.125 C-13.67414655 39.57830405 -13.67414655 39.57830405 -12.4375 40.6875 C-6.56103969 41.15081437 -6.56103969 41.15081437 -1.4375 38.6875 C-0.51961088 35.31716865 -0.51961088 35.31716865 -1.4375 31.6875 C-3.78846173 29.47033284 -6.57452145 28.14885984 -9.4375 26.6875 C-18.71450447 21.686935 -18.71450447 21.686935 -21.5625 17.75 C-23.02880295 12.61793968 -23.24533331 9.24332711 -20.75 4.4375 C-15.09214128 -2.29076443 -8.08411423 -3.0866618 0 0 Z " fill="#1E1E1E" transform="translate(501.4375,106.3125)"/>
<path d="M0 0 C13.6332574 -0.738041 13.6332574 -0.738041 20 4 C20 4.66 20 5.32 20 6 C24.42169059 7.47389686 28.74237757 7.26554775 33.375 7.3125 C34.32117188 7.34150391 35.26734375 7.37050781 36.2421875 7.40039062 C41.97691926 7.48006031 41.97691926 7.48006031 47.0390625 4.98046875 C48.00972656 4.00013672 48.00972656 4.00013672 49 3 C49.66 3 50.32 3 51 3 C51 2.34 51 1.68 51 1 C54.00313748 -0.50156874 56.79067522 -0.09281204 60.125 -0.0625 C61.40632813 -0.05347656 62.68765625 -0.04445312 64.0078125 -0.03515625 C65.48894531 -0.01775391 65.48894531 -0.01775391 67 0 C66.29423828 1.10408203 66.29423828 1.10408203 65.57421875 2.23046875 C64.95160156 3.20628906 64.32898438 4.18210938 63.6875 5.1875 C63.07261719 6.15042969 62.45773438 7.11335937 61.82421875 8.10546875 C60.17876897 10.71634303 58.57630335 13.3469602 57 16 C51.65155992 15.46515599 47.64203897 13.53309233 43 11 C42.67 13.31 42.34 15.62 42 18 C36.39 18 30.78 18 25 18 C24.67 15.69 24.34 13.38 24 11 C23.25234375 11.37253906 22.5046875 11.74507812 21.734375 12.12890625 C20.74953125 12.60199219 19.7646875 13.07507813 18.75 13.5625 C17.77546875 14.03816406 16.8009375 14.51382813 15.796875 15.00390625 C13 16 13 16 10.8671875 15.984375 C8.05077267 14.49957053 7.00027421 12.39032385 5.375 9.6875 C4.78460938 8.72199219 4.19421875 7.75648438 3.5859375 6.76171875 C2.30758537 4.5356228 1.10989356 2.31319399 0 0 Z " fill="#D67127" transform="translate(40,153)"/>
<path d="M0 0 C0.66 0.33 1.32 0.66 2 1 C2.78100524 15.34681694 3.13221626 29.63249973 3 44 C0.8480563 40.77208445 0.79913557 39.71599191 1 36 C-1.97 35.67 -4.94 35.34 -8 35 C-8 34.34 -8 33.68 -8 33 C-8.8353125 32.9071875 -8.8353125 32.9071875 -9.6875 32.8125 C-12.99068042 31.6519231 -14.71894733 29.59786554 -17 27 C-17 26.34 -17 25.68 -17 25 C-18.32 24.67 -19.64 24.34 -21 24 C-18.53515132 17.55347268 -16.53683232 13.24281343 -11 9 C-9.06051576 7.41909786 -7.1230327 5.83573764 -5.1875 4.25 C-4.21167969 3.45078125 -3.23585938 2.6515625 -2.23046875 1.828125 C-1.49441406 1.22484375 -0.75835937 0.6215625 0 0 Z " fill="#E27423" transform="translate(64,111)"/>
<path d="M0 0 C-1.39987116 2.79974232 -3.13006614 2.87703893 -6 4 C-7.40600473 4.9069343 -8.77894854 5.86685493 -10.1171875 6.87109375 C-10.88248779 7.44069824 -11.64778809 8.01030273 -12.4362793 8.59716797 C-13.24105713 9.20447754 -14.04583496 9.81178711 -14.875 10.4375 C-16.56625328 11.69942379 -18.25766172 12.96113966 -19.94921875 14.22265625 C-20.79274902 14.85445801 -21.6362793 15.48625977 -22.50537109 16.13720703 C-26.21508327 18.90732877 -29.95026604 21.64218763 -33.6875 24.375 C-34.92064274 25.27855055 -36.15372307 26.18218629 -37.38671875 27.0859375 C-38.68029297 28.03339844 -38.68029297 28.03339844 -40 29 C-41 27 -41 27 -40.00390625 23.9609375 C-38.66927083 20.640625 -37.33463542 17.3203125 -36 14 C-49.365 14.495 -49.365 14.495 -63 15 C-62.505 18.465 -62.505 18.465 -62 22 C-62.495 23.485 -62.495 23.485 -63 25 C-61.68 25 -60.36 25 -59 25 C-59.33 26.32 -59.66 27.64 -60 29 C-60.72960938 28.42894531 -61.45921875 27.85789062 -62.2109375 27.26953125 C-69.61622731 21.50919092 -77.14546956 15.95665177 -84.81787109 10.5559082 C-88.92275881 7.63413009 -92.56330754 4.68898932 -96 1 C-91.00008271 2.3666528 -86.17595601 3.81872718 -81.484375 6.04296875 C-62.85061116 14.69880559 -43.12874133 15.3518221 -23.84266663 8.50616455 C-17.74094178 6.24856563 -11.74878758 3.738006 -5.80200195 1.1015625 C-3 0 -3 0 0 0 Z " fill="#DB782B" transform="translate(123,80)"/>
<path d="M0 0 C0.70898438 0.72832031 1.41796875 1.45664063 2.1484375 2.20703125 C4.86948391 4.87216575 7.66848189 7.28889233 10.625 9.6875 C11.56601563 10.45449219 12.50703125 11.22148438 13.4765625 12.01171875 C16.0264992 14.07490173 16.0264992 14.07490173 19 16 C19 16.66 19 17.32 19 18 C19.515625 18.763125 20.03125 19.52625 20.5625 20.3125 C22 23 22 23 21.9375 25.625 C20.8036959 28.49730371 19.65197826 29.47310343 17 31 C16.34 31 15.68 31 15 31 C14.79632813 31.62390625 14.59265625 32.2478125 14.3828125 32.890625 C12.38282509 35.94145325 10.37537926 36.00523846 6.875 36.75 C5.77929688 36.99234375 4.68359375 37.2346875 3.5546875 37.484375 C2.71164063 37.65453125 1.86859375 37.8246875 1 38 C-0.49888668 35.00222664 -0.42745026 31.8588112 -0.625 28.5625 C-0.67003662 27.82201416 -0.71507324 27.08152832 -0.76147461 26.31860352 C-1.20280612 17.51674652 -0.62644843 8.77991564 0 0 Z " fill="#E17525" transform="translate(81,109)"/>
<path d="M0 0 C10.89 0 21.78 0 33 0 C33 1.98 33 3.96 33 6 C28.71 6 24.42 6 20 6 C20 19.86 20 33.72 20 48 C17.69 48 15.38 48 13 48 C13 34.14 13 20.28 13 6 C8.71 6 4.42 6 0 6 C0 4.02 0 2.04 0 0 Z " fill="#131313" transform="translate(273,106)"/>
<path d="M0 0 C1.60470241 4.01175602 0.2176313 7.01713733 -1 11 C0.22976562 10.89558594 1.45953125 10.79117188 2.7265625 10.68359375 C15.515517 9.91433333 15.515517 9.91433333 19.35546875 12.72265625 C20.87155721 15.09230658 21.90029861 17.41073654 23 20 C24.60475639 22.70672691 26.29275815 25.35695187 28 28 C24.58805052 29.03707893 21.16984355 30.05178608 17.75 31.0625 C16.78191406 31.35705078 15.81382813 31.65160156 14.81640625 31.95507812 C13.41455078 32.3659668 13.41455078 32.3659668 11.984375 32.78515625 C11.12553711 33.04176025 10.26669922 33.29836426 9.38183594 33.56274414 C6.78216701 34.03998964 5.39837358 34.12115249 3 33 C1.97924805 31.16162109 1.97924805 31.16162109 1.26171875 28.7734375 C0.99939453 27.90589844 0.73707031 27.03835937 0.46679688 26.14453125 C0.20962891 25.23058594 -0.04753906 24.31664062 -0.3125 23.375 C-0.58900391 22.48425781 -0.86550781 21.59351563 -1.15039062 20.67578125 C-3.38588743 13.02891811 -2.74296078 7.49742613 0 0 Z " fill="#DF782B" transform="translate(23,142)"/>
<path d="M0 0 C3.63 0 7.26 0 11 0 C13.03993514 4.92984325 14.40652968 8.57960425 14 14 C12.35 14.66 10.7 15.32 9 16 C8.67 15.01 8.34 14.02 8 13 C7.67 24.55 7.34 36.1 7 48 C4.69 48 2.38 48 0 48 C0 32.16 0 16.32 0 0 Z " fill="#151515" transform="translate(373,106)"/>
<path d="M0 0 C0 2.64 0 5.28 0 8 C5.61 8 11.22 8 17 8 C17 5.36 17 2.72 17 0 C23.435 2.97 23.435 2.97 30 6 C27.14934436 11.70131128 23.86572064 14.48127042 18 17 C10.4988918 18.5434449 2.40636688 18.72792242 -4.49609375 15.2265625 C-7.375 13.0625 -7.375 13.0625 -9.7734375 10.84765625 C-12.23673138 8.80355448 -13.85761991 8.34977022 -17 8 C-13.88375623 5.92250415 -10.77723557 4.43655823 -7.375 2.875 C-6.20710938 2.33617187 -5.03921875 1.79734375 -3.8359375 1.2421875 C-1 0 -1 0 0 0 Z " fill="#B6A79B" transform="translate(65,163)"/>
<path d="M0 0 C3.29164829 -0.02895225 6.58326399 -0.0467823 9.875 -0.0625 C10.81214844 -0.07087891 11.74929687 -0.07925781 12.71484375 -0.08789062 C14.05869141 -0.09272461 14.05869141 -0.09272461 15.4296875 -0.09765625 C16.67081299 -0.10551147 16.67081299 -0.10551147 17.93701172 -0.11352539 C20 0 20 0 22 1 C22 4.96 22 8.92 22 13 C15.375 13.125 15.375 13.125 12 12 C12 11.34 12 10.68 12 10 C11.443125 9.938125 10.88625 9.87625 10.3125 9.8125 C7.00931958 8.6519231 5.28105267 6.59786554 3 4 C3 3.34 3 2.68 3 2 C2.01 1.67 1.02 1.34 0 1 C0 0.67 0 0.34 0 0 Z " fill="#C8642A" transform="translate(44,134)"/>
<path d="M0 0 C-0.38597015 2.79828356 -0.80136573 3.8205884 -2.9375 5.75 C-5 7 -5 7 -7 7 C-7.20367187 7.62390625 -7.40734375 8.2478125 -7.6171875 8.890625 C-9.61717491 11.94145325 -11.62462074 12.00523846 -15.125 12.75 C-16.76855469 13.11351562 -16.76855469 13.11351562 -18.4453125 13.484375 C-19.70988281 13.73960937 -19.70988281 13.73960937 -21 14 C-22.21693876 11.56612247 -22.31959896 9.58161154 -22.5625 6.875 C-22.64628906 5.96492187 -22.73007813 5.05484375 -22.81640625 4.1171875 C-22.87699219 3.41851562 -22.93757813 2.71984375 -23 2 C-18.63239412 0.97888978 -14.27669418 0.68393968 -9.8125 0.4375 C-8.72678711 0.37272461 -8.72678711 0.37272461 -7.61914062 0.30664062 C-2.38678075 0 -2.38678075 0 0 0 Z " fill="#CC6326" transform="translate(103,133)"/>
<path d="M0 0 C1.39456452 0.00667256 2.78911118 0.01863093 4.18359375 0.03515625 C4.89451172 0.03966797 5.60542969 0.04417969 6.33789062 0.04882812 C8.09899388 0.06064761 9.86005411 0.07858362 11.62109375 0.09765625 C11.95109375 3.06765625 12.28109375 6.03765625 12.62109375 9.09765625 C7.01109375 9.09765625 1.40109375 9.09765625 -4.37890625 9.09765625 C-4.37890625 0.12655798 -4.37890625 0.12655798 0 0 Z " fill="#191411" transform="translate(69.37890625,161.90234375)"/>
<path d="M0 0 C3.3 0 6.6 0 10 0 C11.79317423 4.43019517 12.33862005 7.3663152 11 12 C9.5625 13.875 9.5625 13.875 8 15 C7.34 15 6.68 15 6 15 C5.67 13.35 5.34 11.7 5 10 C4.01 10.66 3.02 11.32 2 12 C-0.48772258 8.7162062 -1.03180444 7.38801417 -0.6875 3.1875 C-0.460625 2.135625 -0.23375 1.08375 0 0 Z " fill="#1C1C1C" transform="translate(331,106)"/>
<path d="M0 0 C4.62 0 9.24 0 14 0 C12.27473958 2.70182292 10.54947917 5.40364583 8.82421875 8.10546875 C7.63312403 9.99540706 6.48710338 11.91472804 5.39453125 13.86328125 C4.93433594 14.56839844 4.47414063 15.27351562 4 16 C3.34 16 2.68 16 2 16 C1.34 10.72 0.68 5.44 0 0 Z " fill="#CE6425" transform="translate(93,153)"/>
<path d="M0 0 C0.66 0 1.32 0 2 0 C2.83661862 2.7907207 3.66942737 5.58248012 4.5 8.375 C4.73847656 9.1690625 4.97695313 9.963125 5.22265625 10.78125 C5.44824219 11.54179688 5.67382812 12.30234375 5.90625 13.0859375 C6.22045898 14.1385376 6.22045898 14.1385376 6.54101562 15.21240234 C7 17 7 17 7 19 C3.37 19 -0.26 19 -4 19 C-3.32036523 14.65825558 -2.44151215 10.40296481 -1.4375 6.125 C-1.16808594 4.97257812 -0.89867187 3.82015625 -0.62109375 2.6328125 C-0.41613281 1.76398438 -0.21117187 0.89515625 0 0 Z " fill="#E5E5E5" transform="translate(443,115)"/>
<path d="M0 0 C0.99 0.33 1.98 0.66 3 1 C3.33 5.62 3.66 10.24 4 15 C-0.35010863 13.54996379 -3.99108518 12.09990776 -8 10 C-8.66 10.99 -9.32 11.98 -10 13 C-10.33 11.02 -10.66 9.04 -11 7 C-9.9275 6.54625 -8.855 6.0925 -7.75 5.625 C-5.11937683 4.49911463 -2.53999604 3.32079794 0 2 C0 1.34 0 0.68 0 0 Z " fill="#DB772C" transform="translate(91,154)"/>
<path d="M0 0 C2 1 2 1 2.59423828 2.76586914 C2.75134277 3.51473389 2.90844727 4.26359863 3.0703125 5.03515625 C3.24433594 5.84404297 3.41835938 6.65292969 3.59765625 7.48632812 C3.77167969 8.33646484 3.94570313 9.18660156 4.125 10.0625 C4.30675781 10.91650391 4.48851562 11.77050781 4.67578125 12.65039062 C5.12476342 14.76533296 5.56335351 16.88247647 6 19 C2.37 19 -1.26 19 -5 19 C-4.54543566 16.95749089 -4.08617174 14.9160274 -3.625 12.875 C-3.24214844 11.16957031 -3.24214844 11.16957031 -2.8515625 9.4296875 C-2.05363523 6.21601712 -1.09209441 3.12433966 0 0 Z " fill="#E8E8E8" transform="translate(335,115)"/>
<path d="M0 0 C4.29 0 8.58 0 13 0 C12.34 5.28 11.68 10.56 11 16 C5.72768543 10.72768543 3.38284396 6.52967556 0 0 Z " fill="#D06223" transform="translate(40,153)"/>
<path d="M0 0 C0.33 0 0.66 0 1 0 C1 15.84 1 31.68 1 48 C3.31 48 5.62 48 8 48 C8 36.12 8 24.24 8 12 C8.66 12.33 9.32 12.66 10 13 C10.625 16.0625 10.625 16.0625 11 19 C10.34 19 9.68 19 9 19 C9 28.9 9 38.8 9 49 C6.03 49 3.06 49 0 49 C0 32.83 0 16.66 0 0 Z " fill="#A8A8A8" transform="translate(372,106)"/>
<path d="M0 0 C-0.33 3.96 -0.66 7.92 -1 12 C-2.32 12 -3.64 12 -5 12 C-5 11.34 -5 10.68 -5 10 C-5.69867188 9.95101562 -6.39734375 9.90203125 -7.1171875 9.8515625 C-8.02726562 9.77679688 -8.93734375 9.70203125 -9.875 9.625 C-10.77992187 9.55539063 -11.68484375 9.48578125 -12.6171875 9.4140625 C-15 9 -15 9 -17 7 C-14.35512211 5.83112499 -11.70916976 4.66480453 -9.0625 3.5 C-7.93038086 2.99919922 -7.93038086 2.99919922 -6.77539062 2.48828125 C-1.11328125 0 -1.11328125 0 0 0 Z " fill="#D8BBA7" transform="translate(65,163)"/>
<path d="M0 0 C6.435 2.97 6.435 2.97 13 6 C12.34 7.32 11.68 8.64 11 10 C8.6875 10.6875 8.6875 10.6875 6 11 C5.071875 11.185625 4.14375 11.37125 3.1875 11.5625 C2.465625 11.706875 1.74375 11.85125 1 12 C-0.3271261 8.0186217 -0.06915913 4.14954773 0 0 Z " fill="#D5BEB1" transform="translate(82,163)"/>
<path d="M0 0 C1.89213369 2.38573379 3.02391783 4.07175348 4 7 C4.99 7.66 5.98 8.32 7 9 C6.195625 8.814375 5.39125 8.62875 4.5625 8.4375 C3.716875 8.293125 2.87125 8.14875 2 8 C1.67 8.33 1.34 8.66 1 9 C-0.99954746 9.04254356 -3.00041636 9.04080783 -5 9 C-5.66 9 -6.32 9 -7 9 C-8.32 9 -9.64 9 -11 9 C-11.625 7.125 -11.625 7.125 -12 5 C-10 3 -10 3 -7.6171875 2.8046875 C-6.71226562 2.82789063 -5.80734375 2.85109375 -4.875 2.875 C-3.50988281 2.90207031 -3.50988281 2.90207031 -2.1171875 2.9296875 C-1.41851562 2.95289063 -0.71984375 2.97609375 0 3 C0 2.01 0 1.02 0 0 Z " fill="#969696" transform="translate(273,266)"/>
<path d="M0 0 C0.33 0.99 0.66 1.98 1 3 C2.98 3 4.96 3 7 3 C7 4.65 7 6.3 7 8 C7.66 8 8.32 8 9 8 C9 6.35 9 4.7 9 3 C9.99 3 10.98 3 12 3 C12.33 2.34 12.66 1.68 13 1 C13 1.66 13 2.32 13 3 C13.99 3 14.98 3 16 3 C16.33 2.34 16.66 1.68 17 1 C17 1.66 17 2.32 17 3 C17.66 3.33 18.32 3.66 19 4 C18.34 4 17.68 4 17 4 C17 5.32 17 6.64 17 8 C17.66 8.33 18.32 8.66 19 9 C18.01 9 17.02 9 16 9 C16 7.35 16 5.7 16 4 C15.01 4 14.02 4 13 4 C13 5.32 13 6.64 13 8 C13.66 8.33 14.32 8.66 15 9 C11.04 9 7.08 9 3 9 C3 7.35 3 5.7 3 4 C2.34 4 1.68 4 1 4 C1 5.65 1 7.3 1 9 C0.67 9 0.34 9 0 9 C0 6.03 0 3.06 0 0 Z " fill="#757575" transform="translate(223,266)"/>
<path d="M0 0 C2.96527758 2.4453385 3.55582214 4.44602347 4.1875 8.1875 C4.34605469 9.08855469 4.50460937 9.98960937 4.66796875 10.91796875 C4.77753906 11.60503906 4.88710938 12.29210937 5 13 C2.69 13 0.38 13 -2 13 C-4 7.25 -4 7.25 -4 5 C-3.01 4.67 -2.02 4.34 -1 4 C-0.26676204 1.98491642 -0.26676204 1.98491642 0 0 Z " fill="#2A2A2A" transform="translate(349,142)"/>
<path d="M0 0 C2.01822917 0.06510417 4.03645833 0.13020833 6.0546875 0.1953125 C6.3846875 1.8453125 6.7146875 3.4953125 7.0546875 5.1953125 C3.64905898 5.97374188 0.54702994 6.29509371 -2.9453125 6.1953125 C-3.5703125 4.3203125 -3.5703125 4.3203125 -3.9453125 2.1953125 C-1.9453125 0.1953125 -1.9453125 0.1953125 0 0 Z " fill="#919191" transform="translate(284.9453125,268.8046875)"/>
<path d="M0 0 C1.9375 0.3125 1.9375 0.3125 4 1 C4.33 1.99 4.66 2.98 5 4 C5.33 3.01 5.66 2.02 6 1 C6 1.66 6 2.32 6 3 C6.66 3.33 7.32 3.66 8 4 C7.34 4 6.68 4 6 4 C6 4.99 6 5.98 6 7 C7.32 6.34 8.64 5.68 10 5 C9.67 5.99 9.34 6.98 9 8 C5.7 8 2.4 8 -1 8 C-2.2077558 4.37673261 -1.54311128 3.35853631 0 0 Z " fill="#7A7A7A" transform="translate(348,267)"/>
<path d="M0 0 C2.97 0 5.94 0 9 0 C7.125 5.75 7.125 5.75 6 8 C5.34 8 4.68 8 4 8 C4 7.34 4 6.68 4 6 C3.34 6 2.68 6 2 6 C1.67 6.66 1.34 7.32 1 8 C1 7.34 1 6.68 1 6 C-0.32 5.67 -1.64 5.34 -3 5 C-1.68 5 -0.36 5 1 5 C0.67 3.35 0.34 1.7 0 0 Z " fill="#929292" transform="translate(325,267)"/>
<path d="M0 0 C0.763125 0.639375 1.52625 1.27875 2.3125 1.9375 C4.88246713 4.14232781 4.88246713 4.14232781 8 5 C8 5.66 8 6.32 8 7 C7.01 7.495 7.01 7.495 6 8 C5.34227572 11.02934491 5.34227572 11.02934491 5 14 C1.3672609 11.57817393 1.31868053 10.49554883 0.3125 6.375 C0.06113281 5.37210938 -0.19023438 4.36921875 -0.44921875 3.3359375 C-0.63097656 2.56507813 -0.81273437 1.79421875 -1 1 C-0.67 0.67 -0.34 0.34 0 0 Z " fill="#E97C23" transform="translate(48,139)"/>
<path d="M0 0 C0.7425 0.185625 1.485 0.37125 2.25 0.5625 C4.94990963 0.99203108 6.44631077 0.85122974 9 0 C9.75 1.75 9.75 1.75 10 4 C8.0625 6.25 8.0625 6.25 6 8 C5.67 6.35 5.34 4.7 5 3 C4.34 4.65 3.68 6.3 3 8 C1.68 8 0.36 8 -1 8 C-0.67 7.34 -0.34 6.68 0 6 C0.66 6.33 1.32 6.66 2 7 C1.814375 6.38125 1.62875 5.7625 1.4375 5.125 C1 3 1 3 2 1 C1.34 0.67 0.68 0.34 0 0 Z " fill="#777777" transform="translate(360,267)"/>
<path d="M0 0 C0 0.66 0 1.32 0 2 C-3.92643408 3.66575991 -7.89282898 4.85911916 -12 6 C-15.16590906 6.6659576 -15.16590906 6.6659576 -16.16796875 9.28515625 C-16.50441406 10.20167969 -16.84085938 11.11820313 -17.1875 12.0625 C-17.53167969 12.98160156 -17.87585938 13.90070313 -18.23046875 14.84765625 C-18.48441406 15.55792969 -18.73835938 16.26820313 -19 17 C-20.09604249 13.38144794 -20.08707955 10.57983121 -18.69140625 6.97265625 C-14.96180338 2.62288847 -5.6982961 0 0 0 Z " fill="#E28E3D" transform="translate(44,125)"/>
<path d="M0 0 C7.1178153 2.03807293 14.06707281 4.40344742 21 7 C17.32385364 8.07187853 14.76571793 7.72109492 11 7 C10.01 7 9.02 7 8 7 C5.95703125 5.72265625 5.95703125 5.72265625 3.8125 4.0625 C3.09707031 3.51722656 2.38164062 2.97195312 1.64453125 2.41015625 C1.10183594 1.94480469 0.55914063 1.47945313 0 1 C0 0.67 0 0.34 0 0 Z " fill="#CA7C42" transform="translate(27,81)"/>
<path d="M0 0 C0.99 0.495 0.99 0.495 2 1 C2.625 4.0625 2.625 4.0625 3 7 C2.34 7 1.68 7 1 7 C1 16.9 1 26.8 1 37 C0.67 37 0.34 37 0 37 C0 24.79 0 12.58 0 0 Z " fill="#D3D3D3" transform="translate(380,118)"/>
<path d="M0 0 C6.78661213 0.78914095 13.36149367 2.41274811 20 4 C22.27678571 10.96428571 22.27678571 10.96428571 21 15 C20.81566406 14.45730469 20.63132812 13.91460937 20.44140625 13.35546875 C18.64163474 8.87925964 18.64163474 8.87925964 15.01171875 5.90625 C12.69154992 5.16892519 10.36434295 4.57855048 8 4 C6.47129204 3.45926694 4.94962327 2.89801132 3.4375 2.3125 C2.303125 1.879375 1.16875 1.44625 0 1 C0 0.67 0 0.34 0 0 Z " fill="#E38C3D" transform="translate(100,125)"/>
<path d="M0 0 C2.64 0.33 5.28 0.66 8 1 C8 2.98 8 4.96 8 7 C7.236875 6.814375 6.47375 6.62875 5.6875 6.4375 C2.91032625 5.77180827 2.91032625 5.77180827 0 7 C0 4.69 0 2.38 0 0 Z " fill="#E0E0E0" transform="translate(354,267)"/>
<path d="M0 0 C-0.33 0.99 -0.66 1.98 -1 3 C-1.99 3 -2.98 3 -4 3 C-4.2475 3.78375 -4.495 4.5675 -4.75 5.375 C-6.20780864 8.43639814 -7.07993473 8.58706519 -10 10 C-10.80528889 12.05000871 -10.80528889 12.05000871 -11 14 C-11.99 13.01 -12.98 12.02 -14 11 C-12.50610707 7.16341134 -10.36376981 5.53814574 -7 3.25 C-6.113125 2.63640625 -5.22625 2.0228125 -4.3125 1.390625 C-2 0 -2 0 0 0 Z " fill="#813E0E" transform="translate(96,100)"/>
<path d="M0 0 C0.33 0.66 0.66 1.32 1 2 C0.06421005 4.35981813 -0.93347808 6.69631264 -2 9 C-2.33 8.34 -2.66 7.68 -3 7 C-3.845625 7.495 -4.69125 7.99 -5.5625 8.5 C-9.33796832 10.14747708 -11.92817548 10.24430947 -16 10 C-13.782159 7.782159 -12.64846726 7.49865574 -9.6875 6.6875 C-5.20992491 5.28645231 -2.99016955 3.56891204 0 0 Z " fill="#DE7C2F" transform="translate(100,137)"/>
<path d="M0 0 C-1 2 -1 2 -3.0625 2.8125 C-7.01513505 4.41037374 -10.43473763 6.68213712 -14 9 C-14.99 7.68 -15.98 6.36 -17 5 C-14.73117913 4.16080602 -12.46022973 3.32848276 -10.1875 2.5 C-9.54490234 2.26152344 -8.90230469 2.02304688 -8.24023438 1.77734375 C-5.35066261 0.72931254 -3.09923939 0 0 0 Z " fill="#C77E49" transform="translate(123,80)"/>
<path d="M0 0 C3.125 0.375 3.125 0.375 6 1 C6 2.32 6 3.64 6 5 C6.66 5.33 7.32 5.66 8 6 C7.443125 5.814375 6.88625 5.62875 6.3125 5.4375 C3.600867 4.92448835 1.65628961 5.3359276 -1 6 C-1.625 4.125 -1.625 4.125 -2 2 C-1.34 1.34 -0.68 0.68 0 0 Z " fill="#898989" transform="translate(263,269)"/>
<path d="M0 0 C0.33 0 0.66 0 1 0 C1.88701576 7.19201969 2.26613747 13.06828537 0 20 C-0.33 20 -0.66 20 -1 20 C-1.02703562 17.41659616 -1.04685611 14.83347692 -1.0625 12.25 C-1.07087891 11.52039063 -1.07925781 10.79078125 -1.08789062 10.0390625 C-1.10391684 6.51329442 -0.95292713 3.38965084 0 0 Z " fill="#E57620" transform="translate(80,136)"/>
<path d="M0 0 C7.01533772 -0.65258956 13.50701809 1.42162747 20 4 C20.33 4.66 20.66 5.32 21 6 C13.64987044 5.42351925 6.98575424 3.28953836 0 1 C0 0.67 0 0.34 0 0 Z " fill="#8E450E" transform="translate(97,123)"/>
<path d="M0 0 C2.97 0 5.94 0 9 0 C8.01 0.495 8.01 0.495 7 1 C7 2.65 7 4.3 7 6 C6.34 6 5.68 6 5 6 C5 5.01 5 4.02 5 3 C3.68 3 2.36 3 1 3 C1 3.66 1 4.32 1 5 C1.99 5.33 2.98 5.66 4 6 C2.68 6 1.36 6 0 6 C-1.125 2.25 -1.125 2.25 0 0 Z " fill="#777777" transform="translate(243,269)"/>
<path d="M0 0 C6.27 0 12.54 0 19 0 C14.82326657 2.08836672 12.34788582 2.3695619 7.75 2.625 C6.48671875 2.69976562 5.2234375 2.77453125 3.921875 2.8515625 C2.95765625 2.90054688 1.9934375 2.94953125 1 3 C0.67 2.01 0.34 1.02 0 0 Z " fill="#E1761E" transform="translate(21,153)"/>
<path d="M0 0 C-0.25 1.875 -0.25 1.875 -1 4 C-3.0625 5.25 -3.0625 5.25 -5 6 C-5 4.68 -5 3.36 -5 2 C-6.98 2 -8.96 2 -11 2 C-6.80312837 -0.79791442 -4.79748656 -1.16695619 0 0 Z " fill="#D57D3B" transform="translate(109,87)"/>
<path d="M0 0 C0.99 0.33 1.98 0.66 3 1 C4.1875 3.5625 4.1875 3.5625 5 6 C-2.75 5.25 -2.75 5.25 -5 3 C-2.6875 1.4375 -2.6875 1.4375 0 0 Z " fill="#483125" transform="translate(59,140)"/>
<path d="M0 0 C3.96 0.99 3.96 0.99 8 2 C8 2.66 8 3.32 8 4 C4.7 4.66 1.4 5.32 -2 6 C-1.34 4.02 -0.68 2.04 0 0 Z " fill="#483024" transform="translate(85,140)"/>
<path d="M0 0 C2.0625 0.4375 2.0625 0.4375 4 1 C3.6875 3.375 3.6875 3.375 3 6 C2.01 6.66 1.02 7.32 0 8 C-0.38063221 5.6739143 -0.71269945 3.33944736 -1 1 C-0.67 0.67 -0.34 0.34 0 0 Z " fill="#828282" transform="translate(336,267)"/>
<path d="M0 0 C0.33 0.66 0.66 1.32 1 2 C-2.42388092 5.82669043 -5.00724943 7.72278474 -10 9 C-6.83047153 5.73991357 -3.60062011 2.77762123 0 0 Z " fill="#D2732D" transform="translate(64,111)"/>
<path d="M0 0 C0.33 0.66 0.66 1.32 1 2 C1.99 2 2.98 2 4 2 C4.33 1.34 4.66 0.68 5 0 C5 0.66 5 1.32 5 2 C5.66 2.33 6.32 2.66 7 3 C6.34 3 5.68 3 5 3 C5 4.32 5 5.64 5 7 C5.66 7.33 6.32 7.66 7 8 C6.01 8 5.02 8 4 8 C4 6.35 4 4.7 4 3 C3.01 3 2.02 3 1 3 C1 4.32 1 5.64 1 7 C1.66 7.33 2.32 7.66 3 8 C2.01 8 1.02 8 0 8 C0 5.36 0 2.72 0 0 Z " fill="#4C4C4C" transform="translate(235,267)"/>
<path d="M0 0 C-2.31 1.65 -4.62 3.3 -7 5 C-7.33 4.34 -7.66 3.68 -8 3 C-8.99 2.67 -9.98 2.34 -11 2 C-10.34 1.34 -9.68 0.68 -9 0 C-9 0.66 -9 1.32 -9 2 C-8.071875 1.484375 -7.14375 0.96875 -6.1875 0.4375 C-3 -1 -3 -1 0 0 Z " fill="#C1B1A3" transform="translate(92,173)"/>
<path d="M0 0 C6.435 2.97 6.435 2.97 13 6 C9.61741852 7.12752716 8.67404709 6.87098905 5.375 5.8125 C4.18003906 5.45091797 4.18003906 5.45091797 2.9609375 5.08203125 C2.31382813 4.72496094 1.66671875 4.36789063 1 4 C0.67 2.68 0.34 1.36 0 0 Z " fill="#E3B797" transform="translate(82,163)"/>
<path d="M0 0 C1.45742463 -0.08096803 2.91612807 -0.13917774 4.375 -0.1875 C5.18710938 -0.22230469 5.99921875 -0.25710937 6.8359375 -0.29296875 C7.55007812 -0.19628906 8.26421875 -0.09960938 9 0 C9.66 0.99 10.32 1.98 11 3 C9.54077307 2.88590407 8.08259402 2.75834456 6.625 2.625 C5.40683594 2.52058594 5.40683594 2.52058594 4.1640625 2.4140625 C2 2 2 2 0 0 Z " fill="#D7864A" transform="translate(95,169)"/>
<path d="M0 0 C2 0.25 2 0.25 4 1 C4.33 1.99 4.66 2.98 5 4 C3.35 4.33 1.7 4.66 0 5 C-0.5625 3.0625 -0.5625 3.0625 -1 1 C-0.67 0.67 -0.34 0.34 0 0 Z " fill="#B0B0B0" transform="translate(282,270)"/>
<path d="M0 0 C4.62 0 9.24 0 14 0 C12.68 1.65 11.36 3.3 10 5 C10 3.68 10 2.36 10 1 C6.7 1.33 3.4 1.66 0 2 C0 1.34 0 0.68 0 0 Z " fill="#D5661D" transform="translate(93,153)"/>
<path d="M0 0 C1.32 0.33 2.64 0.66 4 1 C3.67 2.65 3.34 4.3 3 6 C2.01 6.33 1.02 6.66 0 7 C0 4.69 0 2.38 0 0 Z " fill="#AEAEAE" transform="translate(354,267)"/>
<path d="M0 0 C0.99 0.495 0.99 0.495 2 1 C2.625 4.0625 2.625 4.0625 3 7 C2.34 7 1.68 7 1 7 C1 8.98 1 10.96 1 13 C0.67 13 0.34 13 0 13 C0 8.71 0 4.42 0 0 Z " fill="#CACACA" transform="translate(380,118)"/>
<path d="M0 0 C4.48525648 0.656379 8.66914029 1.70074209 13 3 C13 3.33 13 3.66 13 4 C11.39482903 3.91266424 9.79078338 3.80447776 8.1875 3.6875 C6.84751953 3.60048828 6.84751953 3.60048828 5.48046875 3.51171875 C2.69396 2.93686419 1.75864246 2.1793144 0 0 Z " fill="#FCEFD9" transform="translate(102,172)"/>
<path d="M0 0 C2.64 0 5.28 0 8 0 C8 0.99 8 1.98 8 3 C6.02 2.34 4.04 1.68 2 1 C1.34 2.32 0.68 3.64 0 5 C0 3.35 0 1.7 0 0 Z " fill="#AD643D" transform="translate(83,139)"/>
<path d="M0 0 C7.38461538 -0.36923077 7.38461538 -0.36923077 10.5 1.5 C10.995 1.995 11.49 2.49 12 3 C10.56163249 2.88541307 9.12429034 2.75790884 7.6875 2.625 C6.88699219 2.55539063 6.08648437 2.48578125 5.26171875 2.4140625 C3 2 3 2 0 0 Z " fill="#D68F58" transform="translate(108,173)"/>
<path d="M0 0 C1.76462683 3.08809695 2 4.23312136 2 8 C-0.31 8 -2.62 8 -5 8 C-2 6 -2 6 0 6 C0 4.02 0 2.04 0 0 Z " fill="#525252" transform="translate(460,147)"/>
<path d="M0 0 C1.65 1.32 3.3 2.64 5 4 C4.67 4.66 4.34 5.32 4 6 C3.67 5.67 3.34 5.34 3 5 C2.34 5.66 1.68 6.32 1 7 C0.34 5.02 -0.32 3.04 -1 1 C-0.67 0.67 -0.34 0.34 0 0 Z " fill="#E27426" transform="translate(48,139)"/>
<path d="M0 0 C2.475 0.99 2.475 0.99 5 2 C4.34 3.32 3.68 4.64 3 6 C2.34 6 1.68 6 1 6 C0.67 4.02 0.34 2.04 0 0 Z " fill="#853F0B" transform="translate(60,107)"/>
<path d="M0 0 C0 0.66 0 1.32 0 2 C-3.50776784 3.60355101 -6.14354879 4.22036864 -10 4 C-6.74659338 1.32755885 -4.23938937 0 0 0 Z " fill="#E3802D" transform="translate(44,125)"/>
</svg>
